<?xml version="1.0" encoding="UTF-8"?>
<svg version="1.1" xmlns="http://www.w3.org/2000/svg" width="1024" height="1024">
<path d="M0 0 C337.92 0 675.84 0 1024 0 C1024 337.92 1024 675.84 1024 1024 C686.08 1024 348.16 1024 0 1024 C0 686.08 0 348.16 0 0 Z " fill="#FEFEFE" transform="translate(0,0)"/>
<path d="M0 0 C4.75207952 3.16805301 6.55874784 7.61165664 8 13 C8.41762575 16.55194242 8.42769373 20.05187763 8.375 23.625 C8.36557373 24.63135498 8.35614746 25.63770996 8.34643555 26.67456055 C8.13869196 37.27279439 6.77391167 47.56439652 5 58 C4.83902832 58.99837891 4.67805664 59.99675781 4.51220703 61.02539062 C0.39147301 86.28022542 -7.49158887 110.29374338 -17 134 C-16.16359985 134.26393555 -16.16359985 134.26393555 -15.31030273 134.53320312 C5.45816124 141.24641903 24.44478741 152.89238563 41 167 C41.79229004 167.67264893 41.79229004 167.67264893 42.60058594 168.35888672 C59.72057065 183.05962807 70.38785268 198.7372265 74.01318359 221.16357422 C77.29327064 241.21150168 87.03136726 255.58378148 99.47167969 271.0859375 C102.30610584 274.63576194 105.09555517 278.21954947 107.875 281.8125 C108.4102832 282.49352783 108.94556641 283.17455566 109.49707031 283.8762207 C120.05792359 297.56063669 120.05792359 297.56063669 119.55078125 305.86328125 C117.91489941 312.20957464 112.23784331 315.71112164 107 319 C105.66069012 321.67861975 105.49526005 324.38242717 105.10107422 327.32202148 C103.07373597 342.06463347 98.63293087 352.46406006 89 364 C88.46890625 364.64582031 87.9378125 365.29164063 87.390625 365.95703125 C78.03400053 376.25414117 64.95268543 382.59521472 52 387 C51.06800781 387.33902344 50.13601563 387.67804688 49.17578125 388.02734375 C35.48194656 392.46914065 22.7341672 389.77069323 9.2421875 386.3125 C-9.84121041 381.43835507 -30.87885177 378.21317429 -49.1328125 387.61328125 C-51.86555911 389.29239395 -54.43406574 391.07768048 -57 393 C-57.63164062 393.42667969 -58.26328125 393.85335938 -58.9140625 394.29296875 C-70.37363291 402.79607465 -77.04124845 419.33437283 -79.60522461 432.85742188 C-80.50094266 439.98771426 -80.3434059 447.19983654 -80.3125 454.375 C-80.31067719 455.25070648 -80.30885437 456.12641296 -80.30697632 457.02865601 C-80.02693123 537.69349989 -61.19000577 619.79198275 -23 691 C-22.5447998 691.85384277 -22.08959961 692.70768555 -21.62060547 693.58740234 C-13.79409494 708.12856414 -4.66949253 721.62815194 5 735 C5.71446289 735.9887915 5.71446289 735.9887915 6.44335938 736.99755859 C17.36460942 752.02062697 29.60392306 765.6691417 42.6875 778.8125 C43.38810547 779.51777832 44.08871094 780.22305664 44.81054688 780.94970703 C67.92363169 803.99212625 95.04873667 823.48013996 123.20361328 839.84033203 C123.7964209 840.22302246 124.38922852 840.60571289 125 841 C125 841.33 125 841.66 125 842 C84.89521882 849.95729785 41.42027006 849.35350521 1 844 C-0.30501465 843.82839355 -1.6100293 843.65678711 -2.95458984 843.47998047 C-52.23254186 836.86104602 -99.95578348 823.07370562 -145 802 C-146.46348877 801.3186499 -146.46348877 801.3186499 -147.95654297 800.62353516 C-171.64935779 789.48206066 -194.21910945 775.93766211 -215 760 C-215.6197168 759.52900879 -216.23943359 759.05801758 -216.87792969 758.57275391 C-220.41581314 755.87646074 -223.90890502 753.13169594 -227.36279297 750.32861328 C-228.93439444 749.05323971 -230.51582938 747.79001262 -232.09765625 746.52734375 C-240.48811031 739.6775718 -248.14201814 732.06946487 -255.8125 724.4375 C-256.34847809 723.90678894 -256.88445618 723.37607788 -257.43667603 722.82928467 C-264.42794952 715.89115487 -270.90788951 708.75813888 -277 701 C-277.47493896 700.41001221 -277.94987793 699.82002441 -278.43920898 699.2121582 C-310.95031349 658.82516126 -331.46192892 610.19038339 -341.49316406 559.54248047 C-341.93074644 557.34740203 -342.39392936 555.16022243 -342.8671875 552.97265625 C-351.65111382 509.09830263 -350.03666161 462.09517915 -344 418 C-343.8958075 417.23723755 -343.79161499 416.4744751 -343.68426514 415.68859863 C-332.33835931 333.76169457 -304.13979768 248.79370845 -253 183 C-252.55543457 182.42411133 -252.11086914 181.84822266 -251.65283203 181.25488281 C-226.75899042 149.38685296 -194.12504352 124.62284104 -155.51953125 112.4453125 C-149.38666168 110.48775009 -145.39030439 108.76168875 -140.625 104.25 C-140.11533691 103.77191895 -139.60567383 103.29383789 -139.08056641 102.80126953 C-137.97218805 101.76073071 -136.86666301 100.7171461 -135.76367188 99.67089844 C-132.65047839 96.72146651 -129.51046004 93.80071703 -126.375 90.875 C-125.73473877 90.2761499 -125.09447754 89.6772998 -124.43481445 89.06030273 C-120.15211829 85.05831279 -115.826609 81.10985886 -111.453125 77.20703125 C-109.14736385 75.13258054 -106.86994378 73.02981256 -104.59619141 70.92041016 C-99.4522907 66.15644735 -94.17923001 61.6442583 -88.71484375 57.24609375 C-85.89326505 54.9116941 -83.19409288 52.48009402 -80.5 50 C-76.13494078 45.99202602 -71.66364938 42.17994009 -67.05078125 38.4609375 C-64.82711326 36.66719764 -62.61801522 34.86127617 -60.41796875 33.0390625 C-17.70427516 -2.23250391 -17.70427516 -2.23250391 0 0 Z " fill="#004A85" transform="translate(471,70)"/>
<path d="M0 0 C0.92296875 0.40089844 1.8459375 0.80179687 2.796875 1.21484375 C10.73657099 5.08376341 16.82476524 10.82898186 23 17 C24.30130859 18.26650391 24.30130859 18.26650391 25.62890625 19.55859375 C38.53815868 32.8314871 44.54938526 48.53832271 50.703125 65.703125 C58.7199377 87.94289182 72.81581194 100.03732211 90.890625 114.27734375 C154.68002832 164.58866346 193.08758072 247.40466777 221 322 C218.28015683 323.35992159 216.79482468 322.45816469 214.02500916 321.53897095 C213.33999832 321.30310272 212.65498749 321.0672345 211.94921875 320.82421875 C211.2321022 320.58383881 210.51498566 320.34345886 209.77613831 320.09579468 C207.41062542 319.30060649 205.04902002 318.49446212 202.6875 317.6875 C201.04084113 317.12968092 199.39402971 316.57231201 197.74707031 316.01538086 C194.40785567 314.88469238 191.07034333 313.74915108 187.73388672 312.61035156 C183.59050293 311.19767106 179.4393618 309.81020596 175.28515625 308.4296875 C119.82836458 289.86801786 63.02243678 265.29478318 19 226 C18.16855469 225.278125 17.33710937 224.55625 16.48046875 223.8125 C5.40844814 214.08200046 -4.99729251 203.68404633 -14 192 C-14.50418457 191.35095703 -15.00836914 190.70191406 -15.52783203 190.03320312 C-21.89415587 181.83378164 -28.18634662 173.604207 -34 165 C-24.13039724 189.49920467 -12.44269165 209.93167132 6 229 C6.83273437 229.87269531 7.66546875 230.74539063 8.5234375 231.64453125 C31.08281454 254.80881272 60.08593915 271.99853254 88.99658203 286.02490234 C90.9604469 286.98074883 92.91569023 287.9527693 94.87109375 288.92578125 C115.67377239 299.14188771 137.71099188 306.4086366 159.68907166 313.61965942 C161.12870797 314.09308692 162.56726277 314.56981734 164.00465393 315.05001831 C167.15309096 316.09708394 170.27619055 317.07348828 173.48486328 317.92724609 C181.30143948 320.09196732 184.76039391 323.11481807 189.125 329.875 C189.7120874 330.72634521 190.2991748 331.57769043 190.90405273 332.45483398 C192.08268543 334.16667683 193.24928179 335.88687831 194.40283203 337.61572266 C196.54892777 340.81944796 198.80263 343.93869859 201.0625 347.0625 C201.85902824 348.18161233 202.65458551 349.30141632 203.44921875 350.421875 C206.39922481 354.57035756 209.38895966 358.68992272 212.375 362.8125 C216.60669698 368.65721448 220.79299084 374.53069331 224.9375 380.4375 C229.23646899 386.55715839 233.62006239 392.60870819 238.0625 398.625 C238.64523682 399.41438965 239.22797363 400.2037793 239.82836914 401.01708984 C242.65403165 404.83969635 245.48840448 408.65558457 248.33203125 412.46484375 C249.34636246 413.83072301 250.36068581 415.19660811 251.375 416.5625 C251.84558838 417.18785645 252.31617676 417.81321289 252.80102539 418.45751953 C256 422.77428139 256 422.77428139 256 425 C226.8837258 424.86298224 198.06086041 398.32833156 178 380 C176.63101563 378.78763672 176.63101563 378.78763672 175.234375 377.55078125 C167.25860134 370.41736871 159.95582196 362.75421543 152.72167969 354.87451172 C151.17733653 353.19307855 149.62543266 351.51911282 148.0703125 349.84765625 C141.30830128 342.52043133 141.30830128 342.52043133 139.74853516 339.88745117 C134.83260421 332.16897264 128.08433167 330.30527597 119.73901367 327.87606812 C115.69949385 326.69947401 111.69073006 325.42595682 107.6796875 324.15625 C106.86840393 323.90167526 106.05712036 323.64710052 105.22125244 323.3848114 C95.83779877 320.39369939 86.83704036 316.54881669 77.83740234 312.5690918 C76.72574707 312.08609619 75.6140918 311.60310059 74.46875 311.10546875 C73.02145508 310.45807739 73.02145508 310.45807739 71.54492188 309.79760742 C68.76273161 308.92563739 67.65512585 308.87893908 65 310 C62.70548224 311.78012965 60.54101916 313.57552906 58.375 315.5 C57.75326904 316.04245361 57.13153809 316.58490723 56.4909668 317.14379883 C52.09553178 320.9905838 47.76691069 324.91046982 43.4453125 328.83984375 C39.90682562 331.96569558 36.23350855 334.91566526 32.54296875 337.859375 C29.89420144 340.01831739 29.89420144 340.01831739 27.30078125 342.765625 C25 345 25 345 23 345 C27.50288062 350.18073361 33.01673556 353.19299736 38.9375 356.5625 C40.00436035 357.17528809 41.0712207 357.78807617 42.17041016 358.41943359 C45.44092219 360.29043922 48.71934524 362.14684771 52 364 C52.94214355 364.53641113 53.88428711 365.07282227 54.85498047 365.62548828 C104.7762898 393.96261583 159.51831517 412.75712229 217 416 C218.43319747 513.22958644 207.74038075 612.91618105 141 715 C140.13945599 716.12671228 139.28013505 717.25435947 138.421875 718.3828125 C132.86549902 725.63605181 126.98671415 732.44783881 120.71875 739.09375 C118.49225344 741.47379805 116.35426882 743.88813685 114.25 746.375 C111.50134281 749.54450423 108.543601 752.26118377 105.34375 754.96875 C103.01028011 756.99109057 100.76089719 759.08946318 98.51489258 761.20800781 C91.91925419 767.4098914 85.05751065 773.11180496 77.85205078 778.58935547 C75.93360416 780.05057147 74.02736026 781.52684645 72.12109375 783.00390625 C52.1114328 798.3916035 30.01329746 810.21268112 7.58886719 821.67431641 C5.98987238 822.49311514 4.39356916 823.31722449 2.80175781 824.14990234 C1.02384897 825.07802952 -0.7686483 825.97807415 -2.5625 826.875 C-3.95662109 827.58269531 -3.95662109 827.58269531 -5.37890625 828.3046875 C-10.94772166 829.78195895 -16.17656882 826.05684728 -21.0625 823.5625 C-21.74803955 823.21469482 -22.4335791 822.86688965 -23.13989258 822.50854492 C-24.6358249 821.74702473 -26.13048775 820.98300682 -27.62402344 820.21679688 C-29.23181422 819.3934071 -30.84191692 818.57451871 -32.45410156 817.75976562 C-62.05882163 802.79121572 -89.39978101 784.42934714 -113.85546875 761.9609375 C-115.80634883 760.17707266 -117.79748048 758.46047206 -119.8125 756.75 C-123.54138907 753.49859063 -127.05740463 750.05112077 -130.5625 746.5625 C-131.35781128 745.77407715 -131.35781128 745.77407715 -132.16918945 744.96972656 C-136.31054191 740.81242374 -140.18449346 736.45665199 -144 732 C-144.55695557 731.34974854 -145.11391113 730.69949707 -145.68774414 730.02954102 C-154.12205678 720.10471892 -161.93402873 709.94338386 -169 699 C-169.44408203 698.31389648 -169.88816406 697.62779297 -170.34570312 696.92089844 C-208.13830915 638.00249754 -224.08155742 570.8923496 -231 502 C-231.07003235 501.31327209 -231.1400647 500.62654419 -231.21221924 499.91900635 C-234.02219392 472.06349017 -233.20019597 443.9568453 -233 416 C-232.05382812 415.96044189 -231.10765625 415.92088379 -230.1328125 415.88012695 C-220.38949324 415.40854768 -210.9006005 414.23540709 -201.29101562 412.58081055 C-199.00300644 412.18801613 -196.71279838 411.81092768 -194.421875 411.43554688 C-127.17041105 400.21061083 -61.83094513 367.74640575 -9 325 C-4.36257943 327.06715209 -0.62761351 330.30306687 3.34375 333.41796875 C5.78688212 335.18850842 5.78688212 335.18850842 8.109375 334.96484375 C10.4755021 333.75733674 11.93577664 332.3166688 13.75 330.375 C16.33428418 327.69095484 18.92544282 325.11779608 21.75 322.6875 C25.73912688 319.25481321 29.61425967 315.70477059 33.48266602 312.13769531 C37.38430947 308.54612035 41.34783561 305.0318758 45.35546875 301.55859375 C47.10161568 300.08139976 47.10161568 300.08139976 48 298 C47.27578857 297.88696533 46.55157715 297.77393066 45.80541992 297.6574707 C42.86265987 296.96781333 40.74158335 295.95945163 38.11328125 294.48046875 C37.18378662 293.95888184 36.25429199 293.43729492 35.29663086 292.89990234 C34.31186768 292.33480957 33.32710449 291.7697168 32.3125 291.1875 C31.29099854 290.60436035 30.26949707 290.0212207 29.21704102 289.42041016 C9.85171858 278.24363693 -7.82500337 265.43054072 -24 250 C-24.85207031 249.20078125 -25.70414063 248.4015625 -26.58203125 247.578125 C-37.46285669 237.0914082 -46.28483561 224.95071082 -54 212 C-54.3412793 211.43265137 -54.68255859 210.86530273 -55.03417969 210.28076172 C-72.61902074 180.60529071 -78.77976907 145.04666274 -74 111 C-73.12838934 98.35450111 -74.94166324 88.75271151 -83.2265625 78.9296875 C-94.5420225 66.61727067 -111.93033769 62.89695251 -128.07299805 62.15136719 C-129.71495424 62.08983229 -131.3574583 62.04316798 -133 62 C-125.48973128 50.96929282 -111.0711232 45.64982095 -99.02832031 40.91430664 C-91.97713094 38.00016489 -88.77923129 33.70952379 -85.0625 27.0625 C-76.19140021 12.09112253 -61.65684899 2.87446005 -45.25 -2.375 C-30.8406835 -5.91048178 -13.66931733 -6.22930318 0 0 Z " fill="#279184" transform="translate(661,89)"/>
<path d="M0 0 C0.92296875 0.40089844 1.8459375 0.80179687 2.796875 1.21484375 C10.73657099 5.08376341 16.82476524 10.82898186 23 17 C24.30130859 18.26650391 24.30130859 18.26650391 25.62890625 19.55859375 C38.53815868 32.8314871 44.54938526 48.53832271 50.703125 65.703125 C58.7199377 87.94289182 72.81581194 100.03732211 90.890625 114.27734375 C154.68002832 164.58866346 193.08758072 247.40466777 221 322 C218.28015683 323.35992159 216.79482468 322.45816469 214.02500916 321.53897095 C213.33999832 321.30310272 212.65498749 321.0672345 211.94921875 320.82421875 C211.2321022 320.58383881 210.51498566 320.34345886 209.77613831 320.09579468 C207.41062542 319.30060649 205.04902002 318.49446212 202.6875 317.6875 C201.04084113 317.12968092 199.39402971 316.57231201 197.74707031 316.01538086 C194.40785567 314.88469238 191.07034333 313.74915108 187.73388672 312.61035156 C183.59050293 311.19767106 179.4393618 309.81020596 175.28515625 308.4296875 C119.82836458 289.86801786 63.02243678 265.29478318 19 226 C18.16855469 225.278125 17.33710937 224.55625 16.48046875 223.8125 C5.40844814 214.08200046 -4.99729251 203.68404633 -14 192 C-14.50418457 191.35095703 -15.00836914 190.70191406 -15.52783203 190.03320312 C-21.89415587 181.83378164 -28.18634662 173.604207 -34 165 C-24.13039724 189.49920467 -12.44269165 209.93167132 6 229 C6.83273437 229.87269531 7.66546875 230.74539063 8.5234375 231.64453125 C31.08281454 254.80881272 60.08593915 271.99853254 88.99658203 286.02490234 C90.9604469 286.98074883 92.91569023 287.9527693 94.87109375 288.92578125 C115.67377239 299.14188771 137.71099188 306.4086366 159.68907166 313.61965942 C161.12870797 314.09308692 162.56726277 314.56981734 164.00465393 315.05001831 C167.15309096 316.09708394 170.27619055 317.07348828 173.48486328 317.92724609 C181.30143948 320.09196732 184.76039391 323.11481807 189.125 329.875 C189.7120874 330.72634521 190.2991748 331.57769043 190.90405273 332.45483398 C192.08268543 334.16667683 193.24928179 335.88687831 194.40283203 337.61572266 C196.54892777 340.81944796 198.80263 343.93869859 201.0625 347.0625 C201.85902824 348.18161233 202.65458551 349.30141632 203.44921875 350.421875 C206.39922481 354.57035756 209.38895966 358.68992272 212.375 362.8125 C216.60669698 368.65721448 220.79299084 374.53069331 224.9375 380.4375 C229.23646899 386.55715839 233.62006239 392.60870819 238.0625 398.625 C238.64523682 399.41438965 239.22797363 400.2037793 239.82836914 401.01708984 C242.65403165 404.83969635 245.48840448 408.65558457 248.33203125 412.46484375 C249.34636246 413.83072301 250.36068581 415.19660811 251.375 416.5625 C251.84558838 417.18785645 252.31617676 417.81321289 252.80102539 418.45751953 C256 422.77428139 256 422.77428139 256 425 C226.8837258 424.86298224 198.06086041 398.32833156 178 380 C176.63101563 378.78763672 176.63101563 378.78763672 175.234375 377.55078125 C167.25860134 370.41736871 159.95582196 362.75421543 152.72167969 354.87451172 C151.17733653 353.19307855 149.62543266 351.51911282 148.0703125 349.84765625 C141.30830128 342.52043133 141.30830128 342.52043133 139.74853516 339.88745117 C134.83260421 332.16897264 128.08433167 330.30527597 119.73901367 327.87606812 C115.69949385 326.69947401 111.69073006 325.42595682 107.6796875 324.15625 C106.86840393 323.90167526 106.05712036 323.64710052 105.22125244 323.3848114 C95.83779877 320.39369939 86.83704036 316.54881669 77.83740234 312.5690918 C76.72574707 312.08609619 75.6140918 311.60310059 74.46875 311.10546875 C73.02145508 310.45807739 73.02145508 310.45807739 71.54492188 309.79760742 C68.76273161 308.92563739 67.65512585 308.87893908 65 310 C62.70548224 311.78012965 60.54101916 313.57552906 58.375 315.5 C57.75326904 316.04245361 57.13153809 316.58490723 56.4909668 317.14379883 C52.09553178 320.9905838 47.76691069 324.91046982 43.4453125 328.83984375 C39.90682562 331.96569558 36.23350855 334.91566526 32.54296875 337.859375 C29.89420144 340.01831739 29.89420144 340.01831739 27.30078125 342.765625 C25 345 25 345 23 345 C27.50288062 350.18073361 33.01673556 353.19299736 38.9375 356.5625 C40.00436035 357.17528809 41.0712207 357.78807617 42.17041016 358.41943359 C45.44092219 360.29043922 48.71934524 362.14684771 52 364 C52.94214355 364.53641113 53.88428711 365.07282227 54.85498047 365.62548828 C104.7762898 393.96261583 159.51831517 412.75712229 217 416 C218.43319747 513.22958644 207.74038075 612.91618105 141 715 C140.13945599 716.12671228 139.28013505 717.25435947 138.421875 718.3828125 C132.86549902 725.63605181 126.98671415 732.44783881 120.71875 739.09375 C118.49225344 741.47379805 116.35426882 743.88813685 114.25 746.375 C111.50134281 749.54450423 108.543601 752.26118377 105.34375 754.96875 C103.01028011 756.99109057 100.76089719 759.08946318 98.51489258 761.20800781 C91.91925419 767.4098914 85.05751065 773.11180496 77.85205078 778.58935547 C75.93360416 780.05057147 74.02736026 781.52684645 72.12109375 783.00390625 C52.1114328 798.3916035 30.01329746 810.21268112 7.58886719 821.67431641 C5.98987238 822.49311514 4.39356916 823.31722449 2.80175781 824.14990234 C1.02384897 825.07802952 -0.7686483 825.97807415 -2.5625 826.875 C-3.95662109 827.58269531 -3.95662109 827.58269531 -5.37890625 828.3046875 C-10.94772166 829.78195895 -16.17656882 826.05684728 -21.0625 823.5625 C-21.74803955 823.21469482 -22.4335791 822.86688965 -23.13989258 822.50854492 C-24.6358249 821.74702473 -26.13048775 820.98300682 -27.62402344 820.21679688 C-29.23181422 819.3934071 -30.84191692 818.57451871 -32.45410156 817.75976562 C-62.05882163 802.79121572 -89.39978101 784.42934714 -113.85546875 761.9609375 C-115.80634883 760.17707266 -117.79748048 758.46047206 -119.8125 756.75 C-123.54138907 753.49859063 -127.05740463 750.05112077 -130.5625 746.5625 C-131.35781128 745.77407715 -131.35781128 745.77407715 -132.16918945 744.96972656 C-136.31054191 740.81242374 -140.18449346 736.45665199 -144 732 C-144.55695557 731.34974854 -145.11391113 730.69949707 -145.68774414 730.02954102 C-154.12205678 720.10471892 -161.93402873 709.94338386 -169 699 C-169.44408203 698.31389648 -169.88816406 697.62779297 -170.34570312 696.92089844 C-208.13830915 638.00249754 -224.08155742 570.8923496 -231 502 C-231.07003235 501.31327209 -231.1400647 500.62654419 -231.21221924 499.91900635 C-234.02219392 472.06349017 -233.20019597 443.9568453 -233 416 C-232.05382812 415.96044189 -231.10765625 415.92088379 -230.1328125 415.88012695 C-220.38949324 415.40854768 -210.9006005 414.23540709 -201.29101562 412.58081055 C-199.00300644 412.18801613 -196.71279838 411.81092768 -194.421875 411.43554688 C-127.17041105 400.21061083 -61.83094513 367.74640575 -9 325 C-4.36257943 327.06715209 -0.62761351 330.30306687 3.34375 333.41796875 C5.78688212 335.18850842 5.78688212 335.18850842 8.109375 334.96484375 C10.4755021 333.75733674 11.93577664 332.3166688 13.75 330.375 C16.33428418 327.69095484 18.92544282 325.11779608 21.75 322.6875 C25.73912688 319.25481321 29.61425967 315.70477059 33.48266602 312.13769531 C37.38430947 308.54612035 41.34783561 305.0318758 45.35546875 301.55859375 C47.10161568 300.08139976 47.10161568 300.08139976 48 298 C47.27578857 297.88696533 46.55157715 297.77393066 45.80541992 297.6574707 C42.86265987 296.96781333 40.74158335 295.95945163 38.11328125 294.48046875 C37.18378662 293.95888184 36.25429199 293.43729492 35.29663086 292.89990234 C34.31186768 292.33480957 33.32710449 291.7697168 32.3125 291.1875 C31.29099854 290.60436035 30.26949707 290.0212207 29.21704102 289.42041016 C9.85171858 278.24363693 -7.82500337 265.43054072 -24 250 C-24.85207031 249.20078125 -25.70414063 248.4015625 -26.58203125 247.578125 C-37.46285669 237.0914082 -46.28483561 224.95071082 -54 212 C-54.3412793 211.43265137 -54.68255859 210.86530273 -55.03417969 210.28076172 C-72.61902074 180.60529071 -78.77976907 145.04666274 -74 111 C-73.12838934 98.35450111 -74.94166324 88.75271151 -83.2265625 78.9296875 C-94.5420225 66.61727067 -111.93033769 62.89695251 -128.07299805 62.15136719 C-129.71495424 62.08983229 -131.3574583 62.04316798 -133 62 C-125.48973128 50.96929282 -111.0711232 45.64982095 -99.02832031 40.91430664 C-91.97713094 38.00016489 -88.77923129 33.70952379 -85.0625 27.0625 C-76.19140021 12.09112253 -61.65684899 2.87446005 -45.25 -2.375 C-30.8406835 -5.91048178 -13.66931733 -6.22930318 0 0 Z M-14.0625 374.0625 C-69.39545996 411.71244399 -130.97249032 437.74281885 -197 449 C-197.22165 468.77799962 -197.20965663 488.31774307 -195 508 C-194.86577637 509.25490234 -194.73155273 510.50980469 -194.59326172 511.80273438 C-186.78743849 584.56908819 -165.25770957 656.62515389 -115.13671875 711.64453125 C-113.12368309 713.86365466 -111.15001223 716.11120657 -109.1875 718.375 C-105.75202584 722.34063112 -105.75202584 722.34063112 -102 726 C-101.34 726 -100.68 726 -100 726 C-100 726.66 -100 727.32 -100 728 C-98.58680081 729.46870728 -98.58680081 729.46870728 -96.6875 731 C-93.44293614 733.74410254 -90.33381465 736.57695294 -87.25 739.5 C-65.76075765 759.0572911 -39.7679658 775.65089137 -14 789 C-13.36835937 789.40089844 -12.73671875 789.80179688 -12.0859375 790.21484375 C-8.92092335 791.4061693 -7.26958482 790.94446244 -4 790 C-0.59060344 788.3370116 2.63362752 786.40464198 5.875 784.4375 C7.30791382 783.57825928 7.30791382 783.57825928 8.76977539 782.70166016 C32.38073412 768.39210436 55.23628752 752.74061643 75.6640625 734.1171875 C77.76918748 732.20919797 79.90613634 730.34952931 82.0625 728.5 C89.27543267 722.20322612 95.82508662 715.30698084 102 708 C102.78375 707.0821875 103.5675 706.164375 104.375 705.21875 C129.59489717 675.38545701 146.44837953 641.81608963 159 605 C159.31565918 604.09878418 159.63131836 603.19756836 159.95654297 602.26904297 C173.79982036 562.66086167 178.20007237 520.62289478 181 479 C181.07358231 477.92344147 181.07358231 477.92344147 181.14865112 476.82513428 C181.29366924 474.68960862 181.43474689 472.55386323 181.57421875 470.41796875 C181.65502686 469.18199951 181.73583496 467.94603027 181.8190918 466.67260742 C182.10931575 460.78078702 182.08294151 454.89806283 182 449 C181.39341553 448.91024902 180.78683105 448.82049805 180.16186523 448.72802734 C115.51880408 438.99185964 54.06962674 410.93530815 0.40039062 374.22167969 C-0.40720703 373.67157227 -1.21480469 373.12146484 -2.046875 372.5546875 C-2.76198242 372.06210449 -3.47708984 371.56952148 -4.21386719 371.06201172 C-8.20335621 368.68991259 -10.74952433 371.75782127 -14.0625 374.0625 Z " fill="#014A84" transform="translate(661,89)"/>
<path d="M0 0 C25.41 0 50.82 0 77 0 C77 26.07 77 52.14 77 79 C102.74 79 128.48 79 155 79 C155 103.75 155 128.5 155 154 C129.26 154 103.52 154 77 154 C77 180.73 77 207.46 77 235 C51.59 235 26.18 235 0 235 C0 208.27 0 181.54 0 154 C-25.74 154 -51.48 154 -78 154 C-78 129.25 -78 104.5 -78 79 C-52.26 79 -26.52 79 0 79 C0 52.93 0 26.86 0 0 Z " fill="#FDFEFE" transform="translate(615,553)"/>
<path d="M0 0 C2.65577487 2.65577487 1.30824501 10.05436887 1.33007812 13.6237793 C1.25096734 21.37993267 -0.00589674 27.79543904 -3 35 C-7 35 -7 35 -8.53515625 33.63671875 C-9.03917969 32.99347656 -9.54320312 32.35023438 -10.0625 31.6875 C-19.30074828 20.57028597 -29.97331902 11.01778732 -42 3 C-42 2.34 -42 1.68 -42 1 C-28.35087555 -2.38208394 -13.68176302 -4.22890857 0 0 Z " fill="#F6FAFC" transform="translate(507,290)"/>
<path d="M0 0 C3.42949055 2.01698455 6.20893285 4.4178657 8 8 C8.42766537 12.18618599 8.44703752 15.88240621 6.875 19.8125 C4.08422322 23.06840624 1.36748974 25.53217269 -2.95703125 26.38671875 C-8.03336346 26.66819797 -11.12013072 25.42872169 -15 22 C-17.910372 17.634442 -18.6506249 14.20499921 -18 9 C-13.75140666 1.10975523 -8.84088946 -1.72207509 0 0 Z " fill="#F7FBFC" transform="translate(622,122)"/>
<path d="M0 0 C0.33 0 0.66 0 1 0 C1 26.73 1 53.46 1 81 C-24.08 81 -49.16 81 -75 81 C-75 54.6 -75 28.2 -75 1 C-74.67 1 -74.34 1 -74 1 C-73.67 26.74 -73.34 52.48 -73 79 C-49.57 79.33 -26.14 79.66 -2 80 C-1.0198793 76.07951721 -0.82772803 72.56764082 -0.79467773 68.56933594 C-0.78477814 67.82748047 -0.77487854 67.085625 -0.76467896 66.32128906 C-0.73315853 63.87568321 -0.70834405 61.43005795 -0.68359375 58.984375 C-0.66301605 57.2861481 -0.64201936 55.58792623 -0.62062073 53.88970947 C-0.56548433 49.4247241 -0.51603793 44.95969315 -0.46777344 40.49462891 C-0.41749678 35.93648228 -0.36184291 31.37840166 -0.30664062 26.8203125 C-0.19916222 17.88026475 -0.09769441 8.94015964 0 0 Z " fill="#D2EBEA" transform="translate(691,707)"/>
<path d="M0 0 C2.97 0 5.94 0 9 0 C9.02512863 5.91837267 9.04305777 11.83671282 9.05493164 17.75512695 C9.05989302 19.75936424 9.06666425 21.76359805 9.07543945 23.76782227 C9.11907328 34.0063708 9.09098213 44.22217191 8.55859375 54.44921875 C8.51960464 55.19887405 8.48061554 55.94852936 8.44044495 56.72090149 C8.15987378 61.5145546 7.63869082 66.24083137 7 71 C6.67 71 6.34 71 6 71 C5.79373769 47.9902931 6.42032613 25.0004108 7 2 C4.69 2 2.38 2 0 2 C0 1.34 0 0.68 0 0 Z " fill="#114374" transform="translate(869,505)"/>
<path d="M0 0 C0.33 0.66 0.66 1.32 1 2 C0.01 3.485 0.01 3.485 -1 5 C-1.16713569 7.62531524 -1.16713569 7.62531524 -1 10 C-1.598125 10.165 -2.19625 10.33 -2.8125 10.5 C-6.18527798 12.81276204 -6.8331548 16.19891337 -8 20 C-8.66 20 -9.32 20 -10 20 C-9.67 20.99 -9.34 21.98 -9 23 C-9.58394531 23.515625 -10.16789063 24.03125 -10.76953125 24.5625 C-13.39989101 27.43700874 -15.0176888 30.52213615 -16.6875 34 C-16.99494141 34.61617188 -17.30238281 35.23234375 -17.61914062 35.8671875 C-19.08767042 38.86208853 -20.38317942 41.71029024 -21 45 C-21.66 45 -22.32 45 -23 45 C-22.40863494 41.43047786 -21.45818654 38.53183944 -19.84765625 35.296875 C-19.40534668 34.40637451 -18.96303711 33.51587402 -18.50732422 32.59838867 C-18.03053223 31.65842041 -17.55374023 30.71845215 -17.0625 29.75 C-16.57539551 28.78231689 -16.08829102 27.81463379 -15.58642578 26.81762695 C-3.93577094 3.93577094 -3.93577094 3.93577094 0 0 Z " fill="#124171" transform="translate(198,282)"/>
<path d="M0 0 C1.06669922 0.00322266 2.13339844 0.00644531 3.23242188 0.00976562 C4.88661133 0.02233398 4.88661133 0.02233398 6.57421875 0.03515625 C7.69634766 0.03966797 8.81847656 0.04417969 9.97460938 0.04882812 C12.73703385 0.06058312 15.49934873 0.07701548 18.26171875 0.09765625 C15.66083253 2.69854247 14.44034762 2.3972785 10.81640625 2.51171875 C9.74003906 2.55039063 8.66367187 2.5890625 7.5546875 2.62890625 C5.86279297 2.6753125 5.86279297 2.6753125 4.13671875 2.72265625 C3.00105469 2.76132813 1.86539063 2.8 0.6953125 2.83984375 C-2.11572081 2.93433226 -4.92674358 3.01989166 -7.73828125 3.09765625 C-8.39828125 4.41765625 -9.05828125 5.73765625 -9.73828125 7.09765625 C-12.60552811 6.52420688 -13.59973275 6.23620475 -15.73828125 4.09765625 C-16.06828125 4.75765625 -16.39828125 5.41765625 -16.73828125 6.09765625 C-17.39828125 5.43765625 -18.05828125 4.77765625 -18.73828125 4.09765625 C-17.52140625 3.62328125 -16.30453125 3.14890625 -15.05078125 2.66015625 C-14.36628906 2.39332031 -13.68179688 2.12648438 -12.9765625 1.8515625 C-8.62721518 0.38659909 -4.57712239 -0.02447659 0 0 Z " fill="#144574" transform="translate(629.73828125,84.90234375)"/>
<path d="M0 0 C0.66 0.33 1.32 0.66 2 1 C0.06925078 3.15226153 -1.86903417 5.29677351 -3.8125 7.4375 C-4.35970703 8.04916016 -4.90691406 8.66082031 -5.47070312 9.29101562 C-6.00244141 9.87431641 -6.53417969 10.45761719 -7.08203125 11.05859375 C-7.56905518 11.59798584 -8.0560791 12.13737793 -8.55786133 12.69311523 C-10 14 -10 14 -13 15 C-14.67548841 16.76614511 -14.67548841 16.76614511 -16.3125 18.875 C-19.21324462 22.31886276 -21.73561342 24.33584914 -26 26 C-24.58813846 22.75768257 -22.91376102 20.72131802 -20.33203125 18.3203125 C-19.60306641 17.63839844 -18.87410156 16.95648438 -18.12304688 16.25390625 C-17.36056641 15.55136719 -16.59808594 14.84882813 -15.8125 14.125 C-15.06935547 13.43019531 -14.32621094 12.73539062 -13.56054688 12.01953125 C-9.1325916 7.89815658 -4.62026862 3.90427997 0 0 Z " fill="#0F4273" transform="translate(707,390)"/>
<path d="M0 0 C4.34717065 4.05842868 7.70128194 8.52554977 11.125 13.375 C12.26641294 14.9743254 13.4083497 16.57327706 14.55078125 18.171875 C15.1226416 18.97431641 15.69450195 19.77675781 16.28369141 20.60351562 C18.93038698 24.2991008 21.61910692 27.96337624 24.3125 31.625 C24.7863916 32.27001465 25.2602832 32.9150293 25.74853516 33.57958984 C26.83174065 35.05351289 27.91576648 36.52683302 29 38 C28.01 38 27.02 38 26 38 C24.6273318 36.02678947 23.29572383 34.02456848 22 32 C21.01 31.34 20.02 30.68 19 30 C18.03515625 28.3984375 18.03515625 28.3984375 17.0625 26.375 C14.05795561 20.68120291 10.14171925 15.73064374 6.18969727 10.67333984 C3.53502126 7.2347186 1.32751712 4.20244683 0 0 Z " fill="#14426F" transform="translate(885,470)"/>
<path d="M0 0 C1.32 0 2.64 0 4 0 C2.58399311 6.13602988 -1.0663375 10.26698362 -5 15 C-5.66 14.34 -6.32 13.68 -7 13 C-6.57347992 9.16131924 -4.54664416 5.4967607 -3 2 C-2.01 2 -1.02 2 0 2 C0 1.34 0 0.68 0 0 Z " fill="#09467B" transform="translate(567,416)"/>
<path d="M0 0 C0 3 0 3 -1.6171875 4.8671875 C-6.26798819 9.00302064 -10.64315486 12.04759144 -16.29296875 14.63671875 C-21.4917086 17.25484315 -26.22180684 20.69138859 -31 24 C-31.66 23.67 -32.32 23.34 -33 23 C-27.1927815 18.87345886 -21.31651915 14.86692732 -15.375 10.9375 C-10.1130868 7.4541319 -4.98936778 3.86930562 0 0 Z " fill="#024E76" transform="translate(711,843)"/>
<path d="M0 0 C0.99 0.66 1.98 1.32 3 2 C2.34 2 1.68 2 1 2 C1 2.66 1 3.32 1 4 C-0.98 4.33 -2.96 4.66 -5 5 C-5 5.66 -5 6.32 -5 7 C-5.8971875 7.37125 -5.8971875 7.37125 -6.8125 7.75 C-9.28777159 9.16444091 -10.33430804 10.72860188 -12 13 C-12.66 13 -13.32 13 -14 13 C-14.33 13.66 -14.66 14.32 -15 15 C-16.32 14.67 -17.64 14.34 -19 14 C-12.90022202 8.85331233 -6.896032 4.03352815 0 0 Z " fill="#0C4072" transform="translate(276,200)"/>
<path d="M0 0 C6.90031092 2.02250492 13.08073612 4.94441685 19.46875 8.21484375 C24.2454437 10.62961037 29.10694025 12.83307354 34 15 C29.92225388 16.35924871 28.54248765 15.15698674 24.6875 13.359375 C23.77230591 12.93510223 23.77230591 12.93510223 22.83862305 12.5022583 C21.5487367 11.90156785 20.26109942 11.29602769 18.97558594 10.68603516 C17.01275032 9.75604112 15.04240982 8.84375461 13.0703125 7.93359375 C2.56321511 3.0183443 2.56321511 3.0183443 0 0 Z " fill="#12406C" transform="translate(752,361)"/>
<path d="M0 0 C0.33 0.66 0.66 1.32 1 2 C-0.19134558 5.30778905 -1.58353375 8.50733804 -2.96875 11.73828125 C-4.03129755 15.09899035 -4.04298994 16.69099024 -3 20 C-4.32 20.33 -5.64 20.66 -7 21 C-7.66 23.97 -8.32 26.94 -9 30 C-9.66 30 -10.32 30 -11 30 C-9.10229365 23.19058311 -6.81009268 16.5697033 -4.375 9.9375 C-4.06167725 9.07987061 -3.74835449 8.22224121 -3.42553711 7.33862305 C-3.12784424 6.53465088 -2.83015137 5.73067871 -2.5234375 4.90234375 C-2.25450684 4.17523193 -1.98557617 3.44812012 -1.70849609 2.69897461 C-1 1 -1 1 0 0 Z " fill="#154674" transform="translate(162,356)"/>
<path d="M0 0 C0.66 0 1.32 0 2 0 C2.2475 0.66 2.495 1.32 2.75 2 C3.74673623 4.39216694 4.81706038 6.63783006 6 8.9375 C7.29001715 11.46020021 8.23554921 13.71973371 9.125 16.4375 C9.71677773 19.15085833 9.71677773 19.15085833 12 20 C11.67 21.32 11.34 22.64 11 24 C0 6.57388316 0 6.57388316 0 0 Z " fill="#134574" transform="translate(597,278)"/>
<path d="M0 0 C0.33 0 0.66 0 1 0 C1.36366897 6.68002472 0.0071785 12.86012494 -1.375 19.375 C-1.59671875 20.47972656 -1.8184375 21.58445312 -2.046875 22.72265625 C-2.26601563 23.77066406 -2.48515625 24.81867187 -2.7109375 25.8984375 C-2.90993652 26.85411621 -3.10893555 27.80979492 -3.31396484 28.79443359 C-3.54035645 29.52227051 -3.76674805 30.25010742 -4 31 C-4.66 31.33 -5.32 31.66 -6 32 C-5.67 28.04 -5.34 24.08 -5 20 C-4.34 20 -3.68 20 -3 20 C-2.95101562 19.05898438 -2.90203125 18.11796875 -2.8515625 17.1484375 C-2.77679687 15.90320313 -2.70203125 14.65796875 -2.625 13.375 C-2.55539062 12.14523437 -2.48578125 10.91546875 -2.4140625 9.6484375 C-2.0185513 6.16346145 -1.23738151 3.26950399 0 0 Z " fill="#0B3C6F" transform="translate(869,629)"/>
<path d="M0 0 C0 5.65162007 -4.12122214 9.49580963 -7.59765625 13.64453125 C-9 15 -9 15 -11 15 C-11.33 16.32 -11.66 17.64 -12 19 C-12.66 18.01 -13.32 17.02 -14 16 C-12.04266995 13.70746969 -10.08418394 11.41594507 -8.125 9.125 C-7.56941406 8.47402344 -7.01382813 7.82304687 -6.44140625 7.15234375 C-5.90644531 6.52714844 -5.37148437 5.90195313 -4.8203125 5.2578125 C-4.32805176 4.6817627 -3.83579102 4.10571289 -3.32861328 3.51220703 C-2.26399715 2.30047746 -1.14054725 1.14054725 0 0 Z " fill="#124675" transform="translate(231,238)"/>
<path d="M0 0 C0.66 0.33 1.32 0.66 2 1 C1.525625 1.433125 1.05125 1.86625 0.5625 2.3125 C-1.23686957 4.02309613 -1.23686957 4.02309613 -2 7 C-2.66 7 -3.32 7 -4 7 C-4.2475 7.598125 -4.495 8.19625 -4.75 8.8125 C-6.19481318 11.34092306 -7.60244508 12.37812461 -10 14 C-10.7425 14.556875 -11.485 15.11375 -12.25 15.6875 C-12.8275 16.120625 -13.405 16.55375 -14 17 C-14.66 16.67 -15.32 16.34 -16 16 C-10.72 10.72 -5.44 5.44 0 0 Z " fill="#083D6D" transform="translate(248,221)"/>
<path d="M0 0 C3.36476523 1.12158841 3.66840627 1.62745646 5.5625 4.4375 C9.54976081 9.98149992 14.80992608 16.90496304 21 20 C20.67 20.66 20.34 21.32 20 22 C14.96454365 17.79391293 10.18448511 13.33996138 5.5 8.75 C4.95956055 8.23083008 4.41912109 7.71166016 3.86230469 7.17675781 C2.51538674 5.84196646 1.25047494 4.42554143 0 3 C0 2.01 0 1.02 0 0 Z " fill="#164472" transform="translate(525,827)"/>
<path d="M0 0 C0.33 0 0.66 0 1 0 C1.06058594 1.05960938 1.12117188 2.11921875 1.18359375 3.2109375 C1.26800127 4.59897221 1.35264917 5.98699232 1.4375 7.375 C1.47681641 8.07367187 1.51613281 8.77234375 1.55664062 9.4921875 C1.74280134 13.37360492 1.74280134 13.37360492 3 17 C3.07065617 19.04055005 3.08421976 21.08334257 3.0625 23.125 C3.05347656 24.22070312 3.04445313 25.31640625 3.03515625 26.4453125 C3.02355469 27.28835938 3.01195313 28.13140625 3 29 C2.34 29 1.68 29 1 29 C-0.26693763 19.33960055 -0.08984092 9.72278418 0 0 Z " fill="#0B3D6F" transform="translate(124,571)"/>
<path d="M0 0 C0.84433594 0.00966797 1.68867188 0.01933594 2.55859375 0.02929688 C3.86763672 0.06700195 3.86763672 0.06700195 5.203125 0.10546875 C6.09128906 0.11900391 6.97945313 0.13253906 7.89453125 0.14648438 C10.08135078 0.18175566 12.26692466 0.23104123 14.453125 0.29296875 C14.453125 0.95296875 14.453125 1.61296875 14.453125 2.29296875 C6.863125 2.62296875 -0.726875 2.95296875 -8.546875 3.29296875 C-4.046875 -0.08203125 -4.046875 -0.08203125 0 0 Z " fill="#063E70" transform="translate(442.546875,448.70703125)"/>
<path d="M0 0 C3.86248624 3.34316036 4.54212374 7.20983513 6 12 C0.06 10.515 0.06 10.515 -6 9 C-6 8.67 -6 8.34 -6 8 C-4.35 8 -2.7 8 -1 8 C-1 7.34 -1 6.68 -1 6 C-0.34 6 0.32 6 1 6 C0.67 4.02 0.34 2.04 0 0 Z " fill="#1C4774" transform="translate(876,400)"/>
<path d="M0 0 C0 0.99 0 1.98 0 3 C-0.84820313 2.79503906 -1.69640625 2.59007812 -2.5703125 2.37890625 C-11.12675726 0.41374476 -19.220981 -0.61308275 -28 -1 C-28 -1.33 -28 -1.66 -28 -2 C-18.2961088 -3.58790947 -9.5809706 -1.8445607 0 0 Z " fill="#1E4B78" transform="translate(558,152)"/>
<path d="M0 0 C0.99 0.33 1.98 0.66 3 1 C3.66666667 3 4.33333333 5 5 7 C5.99 7.33 6.98 7.66 8 8 C8.33 8.99 8.66 9.98 9 11 C9.495 11.474375 9.99 11.94875 10.5 12.4375 C12.24185971 14.25193719 12.57855013 15.55559077 13 18 C8.17556475 13.47709195 3.73206268 8.46381385 0 3 C0 2.01 0 1.02 0 0 Z " fill="#134376" transform="translate(498,794)"/>
<path d="M0 0 C4.79821659 1.62114502 8.6672859 4.29276759 12.8125 7.125 C13.50537109 7.59292969 14.19824219 8.06085937 14.91210938 8.54296875 C16.61091105 9.69112437 18.30584864 10.84499367 20 12 C17 13 17 13 14.625 12.375 C12 11 12 11 9.5625 8.5 C7.15922041 5.78744795 7.15922041 5.78744795 3.75 4.9375 C2.8425 4.628125 1.935 4.31875 1 4 C0.125 1.875 0.125 1.875 0 0 Z " fill="#154476" transform="translate(557,887)"/>
<path d="M0 0 C6.9064141 3.34961084 13.57269512 6.79753142 20 11 C18 12 18 12 16.0546875 11.44140625 C14.97574219 11.00634766 14.97574219 11.00634766 13.875 10.5625 C13.15054688 10.27503906 12.42609375 9.98757813 11.6796875 9.69140625 C11.12539063 9.46324219 10.57109375 9.23507812 10 9 C10 8.34 10 7.68 10 7 C6.95086772 5.98888907 6.95086772 5.98888907 4 7 C3.566875 6.0409375 3.566875 6.0409375 3.125 5.0625 C2.17176549 2.84793921 2.17176549 2.84793921 0 2 C0 1.34 0 0.68 0 0 Z " fill="#0E4172" transform="translate(703,448)"/>
<path d="M0 0 C0.99 0.33 1.98 0.66 3 1 C2.01 1.66 1.02 2.32 0 3 C-1.23131767 3.95556804 -2.46029992 4.91414963 -3.6875 5.875 C-7.61726082 8.83140047 -11.48067828 11.0520165 -16 13 C-16.66 12.67 -17.32 12.34 -18 12 C-12 8 -6 4 0 0 Z " fill="#2E8E93" transform="translate(653,459)"/>
<path d="M0 0 C4.00972202 3.67557852 6.45335415 7.18966896 9 12 C8.01 12.495 8.01 12.495 7 13 C6.67 13.99 6.34 14.98 6 16 C5.18667257 13.89615302 4.37436583 11.79191143 3.5625 9.6875 C3.11003906 8.51574219 2.65757812 7.34398437 2.19140625 6.13671875 C1.42015245 4.10617185 0.68687358 2.06062074 0 0 Z " fill="#E1F1F8" transform="translate(626,253)"/>
<path d="M0 0 C0 0.99 0 1.98 0 3 C-0.61875 3.2475 -1.2375 3.495 -1.875 3.75 C-4.11726053 4.79289956 -4.11726053 4.79289956 -4.8125 6.8125 C-6.61997575 10.1420606 -9.60625609 12.34469952 -13 14 C-13.99 13.67 -14.98 13.34 -16 13 C-10.72 8.71 -5.44 4.42 0 0 Z " fill="#004D77" transform="translate(729,829)"/>
<path d="M0 0 C1.32933732 3.98801195 0.19687528 6.89767074 -0.875 10.8125 C-2.13553566 15.52864204 -3.28592427 20.16099745 -4 25 C-4.33 25 -4.66 25 -5 25 C-5.48350422 17.10276444 -3.67664721 9.66467297 -2 2 C-1.34 2 -0.68 2 0 2 C0 1.34 0 0.68 0 0 Z " fill="#0D3D6D" transform="translate(394,487)"/>
<path d="M0 0 C4.1246911 1.45577333 7.37327201 3.58218134 11 6 C11.9075 6.33 12.815 6.66 13.75 7 C16 8 16 8 17.3125 10.125 C17.6528125 11.053125 17.6528125 11.053125 18 12 C13.83740241 10.5199653 10.41490692 8.4553071 6.75 6 C5.69296875 5.29875 4.6359375 4.5975 3.546875 3.875 C1 2 1 2 0 0 Z " fill="#194774" transform="translate(581,877)"/>
<path d="M0 0 C4.54822201 2.40490403 7.77351595 5.5367133 11.3125 9.1875 C11.86228516 9.74630859 12.41207031 10.30511719 12.97851562 10.88085938 C14.32363696 12.24937412 15.66246643 13.62406833 17 15 C14 15 14 15 12.3515625 13.609375 C11.78179688 12.99578125 11.21203125 12.3821875 10.625 11.75 C8.49541771 9.51190397 6.5037479 7.60933345 4.0625 5.6875 C3.381875 5.130625 2.70125 4.57375 2 4 C2 3.34 2 2.68 2 2 C1.34 2 0.68 2 0 2 C0 1.34 0 0.68 0 0 Z " fill="#1C4773" transform="translate(760,211)"/>
<path d="M0 0 C0 3 0 3 -2 6 C-6.38834061 8.77730565 -12.9634895 12.63897793 -18.171875 11.54296875 C-18.77515625 11.36378906 -19.3784375 11.18460938 -20 11 C-18.89140625 10.54109375 -17.7828125 10.0821875 -16.640625 9.609375 C-15.17686759 8.99009302 -13.71333777 8.37027293 -12.25 7.75 C-11.15558594 7.29947266 -11.15558594 7.29947266 -10.0390625 6.83984375 C-5.93853319 5.08779941 -2.93461229 3.49064409 0 0 Z " fill="#144170" transform="translate(572,123)"/>
<path d="M0 0 C4.55665941 0.53607758 7.23345952 2.48897302 11 5 C13.7282504 5.78215588 13.7282504 5.78215588 16 6 C16 7.98 16 9.96 16 12 C14.5459375 10.6696875 14.5459375 10.6696875 13.0625 9.3125 C9.05481531 5.85505071 4.69438427 3.40573888 0 1 C0 0.67 0 0.34 0 0 Z " fill="#184777" transform="translate(564,157)"/>
<path d="M0 0 C-0.875 4.75 -0.875 4.75 -2 7 C-2.27843054 11.82612943 -1.75645727 15.49907826 0 20 C-0.66 20 -1.32 20 -2 20 C-4.44989101 16.25764681 -4.23086143 12.55774581 -4.125 8.25 C-4.11597656 7.55261719 -4.10695313 6.85523438 -4.09765625 6.13671875 C-4.07419888 4.42433042 -4.03833104 2.71211996 -4 1 C-2 0 -2 0 0 0 Z " fill="#124371" transform="translate(607,124)"/>
<path d="M0 0 C0 0.99 0 1.98 0 3 C-1.65788785 4.34423339 -3.32576317 5.67618483 -5 7 C-5.7734375 8.3303125 -5.7734375 8.3303125 -6.5625 9.6875 C-8 12 -8 12 -10 12.8125 C-12 13 -12 13 -15 13 C-13.43910974 11.58155991 -11.8762111 10.16532975 -10.3125 8.75 C-9.44238281 7.96109375 -8.57226562 7.1721875 -7.67578125 6.359375 C-5.17579137 4.15500436 -2.62054272 2.05866059 0 0 Z " fill="#0E3F6D" transform="translate(407,106)"/>
<path d="M0 0 C0.99 0.495 0.99 0.495 2 1 C2.6328125 3.94140625 2.6328125 3.94140625 3.125 7.5625 C3.29257812 8.76003906 3.46015625 9.95757813 3.6328125 11.19140625 C3.75398438 12.11824219 3.87515625 13.04507813 4 14 C3.01 14 2.02 14 1 14 C0.06380187 10.84493858 -0.1057123 8.03413498 -0.0625 4.75 C-0.05347656 3.85796875 -0.04445313 2.9659375 -0.03515625 2.046875 C-0.02355469 1.37140625 -0.01195312 0.6959375 0 0 Z " fill="#0E4376" transform="translate(395,605)"/>
<path d="M0 0 C2.28280201 7.91139017 -0.82724158 14.79857624 -4 22 C-5.39700413 19.20599175 -4.56667619 17.9000321 -3.6875 14.9375 C-2.26313395 9.98488776 -1.07399233 5.03950246 0 0 Z " fill="#134779" transform="translate(466,159)"/>
<path d="M0 0 C0.33 0.99 0.66 1.98 1 3 C0.67 3.66 0.34 4.32 0 5 C0.66 5.66 1.32 6.32 2 7 C-1.3 7.33 -4.6 7.66 -8 8 C-2.25 1.125 -2.25 1.125 0 0 Z " fill="#093E70" transform="translate(536,143)"/>
<path d="M0 0 C2.14014948 1.92613454 3.47433788 3.73306763 5.0625 6.1875 C5.701875 7.115625 6.34125 8.04375 7 9 C7.66 9 8.32 9 9 9 C9.33 11.31 9.66 13.62 10 16 C5.46321158 11.98170169 2.54222705 7.5063556 0 2 C0 1.34 0 0.68 0 0 Z " fill="#0E4171" transform="translate(481,768)"/>
<path d="M0 0 C0.33 0.66 0.66 1.32 1 2 C-0.24493748 4.28974316 -1.52641528 6.44190034 -2.9375 8.625 C-3.32357422 9.23601563 -3.70964844 9.84703125 -4.10742188 10.4765625 C-5.06446326 11.9889242 -6.03132811 13.49506117 -7 15 C-7.33 14.34 -7.66 13.68 -8 13 C-7.34 12.01 -6.68 11.02 -6 10 C-5.83300768 6.87478167 -5.83300768 6.87478167 -6 4 C-5.34 3.67 -4.68 3.34 -4 3 C-4 3.66 -4 4.32 -4 5 C-3.34 5 -2.68 5 -2 5 C-1.34 3.35 -0.68 1.7 0 0 Z " fill="#0D4173" transform="translate(824,767)"/>
<path d="M0 0 C1.90401138 1.90401138 2.93520439 3.33425686 3.19921875 6.046875 C3.1886578 8.03233273 3.09915043 10.0169914 3 12 C3.66 12 4.32 12 5 12 C5 13.65 5 15.3 5 17 C4.34 17 3.68 17 3 17 C2.49255577 15.10614563 1.99435426 13.20981334 1.5 11.3125 C1.2215625 10.25675781 0.943125 9.20101562 0.65625 8.11328125 C0.0608285 5.28857328 -0.12786492 2.87163292 0 0 Z " fill="#0F4073" transform="translate(132,636)"/>
<path d="M0 0 C0.66 0.33 1.32 0.66 2 1 C2.04241723 3.33294775 2.04092937 5.66702567 2 8 C1.67 8.33 1.34 8.66 1 9 C0.76924918 10.34747084 0.58846937 11.70377565 0.4375 13.0625 C0.2209375 15.0115625 0.2209375 15.0115625 0 17 C-0.66 16.67 -1.32 16.34 -2 16 C-1.34 10.72 -0.68 5.44 0 0 Z " fill="#164578" transform="translate(130,470)"/>
<path d="M0 0 C0.99 0.33 1.98 0.66 3 1 C1.625 2.5 1.625 2.5 0 4 C-0.66 4 -1.32 4 -2 4 C-2.66 5.98 -3.32 7.96 -4 10 C-4.99 10 -5.98 10 -7 10 C-7.33 9.01 -7.66 8.02 -8 7 C-6.74057614 5.80040625 -5.46704714 4.61560557 -4.1875 3.4375 C-3.12595703 2.44556641 -3.12595703 2.44556641 -2.04296875 1.43359375 C-1.36878906 0.96050781 -0.69460938 0.48742187 0 0 Z " fill="#E4F2F9" transform="translate(692,427)"/>
<path d="M0 0 C2.9552728 2.61778794 4.75832727 5.67583335 6.75 9.0625 C7.38421875 10.12597656 8.0184375 11.18945312 8.671875 12.28515625 C9.11015625 13.18105469 9.5484375 14.07695313 10 15 C9.67 15.66 9.34 16.32 9 17 C8.67386719 16.43410156 8.34773438 15.86820313 8.01171875 15.28515625 C7.35623047 14.18494141 7.35623047 14.18494141 6.6875 13.0625 C6.25824219 12.33160156 5.82898438 11.60070312 5.38671875 10.84765625 C4.04889746 8.70022588 4.04889746 8.70022588 1 8 C0.67 5.36 0.34 2.72 0 0 Z " fill="#10416E" transform="translate(449,765)"/>
<path d="M0 0 C0.66 0 1.32 0 2 0 C2 2.97 2 5.94 2 9 C2.66 9 3.32 9 4 9 C4 10.98 4 12.96 4 15 C3.01 15.495 3.01 15.495 2 16 C0.80911014 10.61972975 -0.2919519 5.54708616 0 0 Z " fill="#0F4273" transform="translate(439,648)"/>
<path d="M0 0 C2.97 0 5.94 0 9 0 C8.67 4.62 8.34 9.24 8 14 C7.67 14 7.34 14 7 14 C7 10.04 7 6.08 7 2 C4.69 2 2.38 2 0 2 C0 1.34 0 0.68 0 0 Z " fill="#0E4274" transform="translate(869,505)"/>
<path d="M0 0 C-0.66 1.65 -1.32 3.3 -2 5 C-4.86724686 4.42655063 -5.8614515 4.1385485 -8 2 C-8.33 2.66 -8.66 3.32 -9 4 C-9.66 3.34 -10.32 2.68 -11 2 C-7.36576791 -0.32590854 -4.22911669 -0.16265833 0 0 Z " fill="#0B447C" transform="translate(622,87)"/>
<path d="M0 0 C1.08784335 3.31395986 1.07262544 3.83580335 -0.4375 7.25 C-0.953125 8.1575 -1.46875 9.065 -2 10 C-2.66 10 -3.32 10 -4 10 C-4.433125 11.4540625 -4.433125 11.4540625 -4.875 12.9375 C-6 16 -6 16 -8 17 C-6.3341708 10.83643195 -3.12194714 5.51740344 0 0 Z " fill="#025176" transform="translate(803,735)"/>
<path d="M0 0 C1.45489101 4.47208109 -0.03886361 6.7871885 -2 11 C-2.68836513 12.99263591 -3.36281399 14.99041337 -4 17 C-4.66 17 -5.32 17 -6 17 C-5.34496718 12.94180817 -4.05440879 9.46028718 -2.4375 5.6875 C-1.75494141 4.08455078 -1.75494141 4.08455078 -1.05859375 2.44921875 C-0.53458984 1.23685547 -0.53458984 1.23685547 0 0 Z " fill="#144273" transform="translate(173,328)"/>
<path d="M0 0 C0.66 0.33 1.32 0.66 2 1 C0.375 6.75 0.375 6.75 -3 9 C-3.99 8.67 -4.98 8.34 -6 8 C-4.02 5.36 -2.04 2.72 0 0 Z " fill="#0C4478" transform="translate(211,263)"/>
<path d="M0 0 C-0.66 0 -1.32 0 -2 0 C-2.66 1.32 -3.32 2.64 -4 4 C-4.33 3.34 -4.66 2.68 -5 2 C-6.36125 2.7734375 -6.36125 2.7734375 -7.75 3.5625 C-11.16419665 5.07262544 -11.68604014 5.08784335 -15 4 C-13.06767179 3.13419713 -11.12892806 2.28270059 -9.1875 1.4375 C-8.10855469 0.96183594 -7.02960937 0.48617188 -5.91796875 -0.00390625 C-3 -1 -3 -1 0 0 Z " fill="#0F4172" transform="translate(539,482)"/>
<path d="M0 0 C1.32 0 2.64 0 4 0 C4.66 1.32 5.32 2.64 6 4 C5.34 4 4.68 4 4 4 C4 5.98 4 7.96 4 10 C1.16625119 6.79663178 0.4794463 4.21912747 0 0 Z " fill="#EEF8FD" transform="translate(632,265)"/>
<path d="M0 0 C0.66 0.33 1.32 0.66 2 1 C-1.3 4.63 -4.6 8.26 -8 12 C-8.99 11.67 -9.98 11.34 -11 11 C-7.37 7.37 -3.74 3.74 0 0 Z " fill="#0A3B6D" transform="translate(339,166)"/>
<path d="M0 0 C2.79297711 0.44099639 5.31340243 1.10446748 8 2 C8 2.66 8 3.32 8 4 C8.99 4 9.98 4 11 4 C11 4.66 11 5.32 11 6 C9.37276701 5.54965877 7.74826336 5.08944646 6.125 4.625 C5.22007812 4.36976563 4.31515625 4.11453125 3.3828125 3.8515625 C1 3 1 3 -1 1 C-0.67 0.67 -0.34 0.34 0 0 Z " fill="#194A79" transform="translate(352,881)"/>
<path d="M0 0 C0.33 0 0.66 0 1 0 C3.27141454 5.39460953 3.20413361 10.26157749 3 16 C-0.42724441 10.85913339 -0.1015597 5.99202204 0 0 Z " fill="#0B3E6E" transform="translate(128,614)"/>
<path d="M0 0 C0 0.33 0 0.66 0 1 C-5.28 1 -10.56 1 -16 1 C-10.57821343 -2.61452438 -5.90698349 -2.44923706 0 0 Z " fill="#215282" transform="translate(512,459)"/>
<path d="M0 0 C4.58752421 0.55606354 8.72349252 2.33288691 13 4 C12.67 4.66 12.34 5.32 12 6 C10.39402675 5.54803755 8.79027492 5.08817673 7.1875 4.625 C6.29417969 4.36976563 5.40085937 4.11453125 4.48046875 3.8515625 C2 3 2 3 -1 1 C-0.67 0.67 -0.34 0.34 0 0 Z " fill="#194678" transform="translate(819,389)"/>
<path d="M0 0 C5.23272633 1.63958758 10.15196636 3.38952035 15 6 C15 6.66 15 7.32 15 8 C9.52067211 6.45454854 4.88570819 3.84456788 0 1 C0 0.67 0 0.34 0 0 Z " fill="#1B4773" transform="translate(752,361)"/>
<path d="M0 0 C3.81552617 1.49895671 5.53745046 3.7986856 8 7 C8.66 7.33 9.32 7.66 10 8 C9.67 8.99 9.34 9.98 9 11 C7.49403892 9.54782324 5.99537896 8.08807139 4.5 6.625 C3.6646875 5.81289063 2.829375 5.00078125 1.96875 4.1640625 C0 2 0 2 0 0 Z " fill="#2B8891" transform="translate(550,804)"/>
<path d="M0 0 C2.97 0.33 5.94 0.66 9 1 C9 1.66 9 2.32 9 3 C10.32 3.33 11.64 3.66 13 4 C9.29218328 5.23593891 8.32489747 4.5678132 4.8125 3.0625 C3.91144531 2.68222656 3.01039063 2.30195313 2.08203125 1.91015625 C1.39496094 1.60980469 0.70789063 1.30945313 0 1 C0 0.67 0 0.34 0 0 Z " fill="#174777" transform="translate(769,412)"/>
<path d="M0 0 C-1 1 -1 1 -4.4375 1.375 C-6.2009375 1.684375 -6.2009375 1.684375 -8 2 C-8.99 3.485 -8.99 3.485 -10 5 C-10.99 4.34 -11.98 3.68 -13 3 C-13 2.34 -13 1.68 -13 1 C-11.58622218 0.63447197 -10.16879424 0.28304505 -8.75 -0.0625 C-7.96109375 -0.25972656 -7.1721875 -0.45695312 -6.359375 -0.66015625 C-3.89605178 -1.01497267 -2.34395868 -0.76877544 0 0 Z " fill="#CEE3F1" transform="translate(478,290)"/>
<path d="M0 0 C1.875 0.3125 1.875 0.3125 4 1 C4.66 1.99 5.32 2.98 6 4 C8.05003955 5.19232613 8.05003955 5.19232613 10 6 C9.34 7.32 8.68 8.64 8 10 C6.66370254 8.52351062 5.33103329 7.0437367 4 5.5625 C3.2575 4.73878906 2.515 3.91507813 1.75 3.06640625 C0 1 0 1 0 0 Z " fill="#E3F1F8" transform="translate(780,230)"/>
<path d="M0 0 C4.81033104 2.54664585 8.32442148 4.99027798 12 9 C10.35 8.67 8.7 8.34 7 8 C7 7.34 7 6.68 7 6 C6.34 6 5.68 6 5 6 C5 5.34 5 4.68 5 4 C3.68 4 2.36 4 1 4 C0.67 2.68 0.34 1.36 0 0 Z " fill="#124174" transform="translate(492,223)"/>
<path d="M0 0 C0.99 0.66 1.98 1.32 3 2 C2.34 2 1.68 2 1 2 C1 2.66 1 3.32 1 4 C-0.98 4.33 -2.96 4.66 -5 5 C-5 5.66 -5 6.32 -5 7 C-5.99 6.67 -6.98 6.34 -8 6 C-5.38485683 3.87961365 -2.80362384 1.86908256 0 0 Z " fill="#154678" transform="translate(276,200)"/>
<path d="M0 0 C2.51954654 2.25890379 3.87332733 4.417897 5.25 7.5 C5.60578125 8.2734375 5.9615625 9.046875 6.328125 9.84375 C7 12 7 12 6 15 C2.87616707 10.00186731 1.2143834 5.76832116 0 0 Z " fill="#174472" transform="translate(859,360)"/>
<path d="M0 0 C0.66 0.33 1.32 0.66 2 1 C0.35 5.29 -1.3 9.58 -3 14 C-4.51588353 9.4523494 -2.83701808 5.81353917 -0.875 1.5625 C-0.58625 1.046875 -0.2975 0.53125 0 0 Z " fill="#D8E8F3" transform="translate(160,356)"/>
<path d="M0 0 C2.72168665 3.17530109 4.85559053 5.94254825 6 10 C5.54296875 12.15234375 5.54296875 12.15234375 5 14 C4.15973604 12.23244474 3.32801278 10.46082737 2.5 8.6875 C2.0359375 7.70136719 1.571875 6.71523438 1.09375 5.69921875 C0 3 0 3 0 0 Z " fill="#DAECF5" transform="translate(548,305)"/>
<path d="M0 0 C2.03144641 0.93446535 4.03533587 1.93224776 6 3 C6 3.33 6 3.66 6 4 C0.375 5.125 0.375 5.125 -3 4 C-2.67 3.01 -2.34 2.02 -2 1 C-1.34 0.67 -0.68 0.34 0 0 Z " fill="#144273" transform="translate(590,908)"/>
<path d="M0 0 C-3.96 1.98 -7.92 3.96 -12 6 C-11 2 -11 2 -9.2578125 0.91796875 C-8.55398438 0.67691406 -7.85015625 0.43585937 -7.125 0.1875 C-6.42632813 -0.06644531 -5.72765625 -0.32039062 -5.0078125 -0.58203125 C-3 -1 -3 -1 0 0 Z " fill="#164572" transform="translate(695,897)"/>
<path d="M0 0 C2.90092502 2.90092502 3.55461795 3.96517325 4.6875 7.6875 C4.93886719 8.49574219 5.19023437 9.30398438 5.44921875 10.13671875 C5.63097656 10.75160156 5.81273437 11.36648438 6 12 C5.01 12 4.02 12 3 12 C2.01 8.04 1.02 4.08 0 0 Z " fill="#154575" transform="translate(425,715)"/>
<path d="M0 0 C0.33 0 0.66 0 1 0 C1.33 5.94 1.66 11.88 2 18 C1.67 18 1.34 18 1 18 C1 16.02 1 14.04 1 12 C0.34 12 -0.32 12 -1 12 C-0.67 8.04 -0.34 4.08 0 0 Z " fill="#DAEBF2" transform="translate(122,566)"/>
<path d="M0 0 C-0.33 0.99 -0.66 1.98 -1 3 C-2.65 3 -4.3 3 -6 3 C-6.33 3.66 -6.66 4.32 -7 5 C-8.32 4.67 -9.64 4.34 -11 4 C-9.73308493 3.32591692 -8.46129251 2.66099503 -7.1875 2 C-6.47980469 1.62875 -5.77210938 1.2575 -5.04296875 0.875 C-3 0 -3 0 0 0 Z " fill="#0F4172" transform="translate(551,476)"/>
<path d="M0 0 C3.36591866 1.44253657 5.51047079 3.33264727 8 6 C7.319375 5.649375 6.63875 5.29875 5.9375 4.9375 C2.2912211 3.77379397 -0.28489978 4.27154898 -4 5 C-2.68 3.35 -1.36 1.7 0 0 Z " fill="#16416C" transform="translate(652,414)"/>
<path d="M0 0 C0.99 0 1.98 0 3 0 C3 0.99 3 1.98 3 3 C3.9590625 3.3403125 3.9590625 3.3403125 4.9375 3.6875 C7 5 7 5 7.75 7.625 C7.8325 8.40875 7.915 9.1925 8 10 C4.71211176 6.88983545 2.16264012 3.98381075 0 0 Z " fill="#DFF0F7" transform="translate(560,328)"/>
<path d="M0 0 C0.99 0.33 1.98 0.66 3 1 C0.03 3.64 -2.94 6.28 -6 9 C-6.33 8.01 -6.66 7.02 -7 6 C-5.90716423 4.96704564 -4.80029421 3.94892165 -3.6875 2.9375 C-3.07261719 2.36902344 -2.45773437 1.80054688 -1.82421875 1.21484375 C-0.92123047 0.61349609 -0.92123047 0.61349609 0 0 Z " fill="#DDEFF6" transform="translate(353,151)"/>
<path d="M0 0 C0.9659657 2.60810739 1.02770914 3.89420147 0.3125 6.625 C-1.16625774 9.30084735 -2.17750049 9.96508351 -5 11 C-3.55049545 7.2089881 -1.84827434 3.6125362 0 0 Z " fill="#EBF7FC" transform="translate(835,749)"/>
<path d="M0 0 C0.33 0 0.66 0 1 0 C2.11436424 4.68032982 1.91118093 7.57410732 0 12 C-0.66 12.66 -1.32 13.32 -2 14 C-1.03644647 4.58997722 -1.03644647 4.58997722 0 0 Z " fill="#CDE0EC" transform="translate(868,641)"/>
<path d="M0 0 C0 0.66 0 1.32 0 2 C0.66 2.33 1.32 2.66 2 3 C-4.15234375 2.4140625 -4.15234375 2.4140625 -6 2 C-6.33 1.34 -6.66 0.68 -7 0 C-4.3333581 -1.33332095 -2.83319697 -0.67102033 0 0 Z " fill="#164878" transform="translate(390,893)"/>
<path d="M0 0 C3.48331435 3.01887244 4.79157144 5.56909529 6 10 C5.34 9.67 4.68 9.34 4 9 C4 8.34 4 7.68 4 7 C3.01 6.67 2.02 6.34 1 6 C0.67 4.02 0.34 2.04 0 0 Z " fill="#0F4175" transform="translate(825,294)"/>
<path d="M0 0 C2.94721162 2.74395564 5.19168608 5.38337216 7 9 C6.67 9.66 6.34 10.32 6 11 C1.9957657 7.50912907 0.37328935 5.35048061 0 0 Z " fill="#154570" transform="translate(811,271)"/>
<path d="M0 0 C3.08089673 2.77280706 4.68775452 5.06326356 6 9 C3.525 8.01 3.525 8.01 1 7 C0.67 4.69 0.34 2.38 0 0 Z " fill="#0F4070" transform="translate(459,782)"/>
<path d="M0 0 C0.763125 0.66 1.52625 1.32 2.3125 2 C4.84277939 4.29850538 4.84277939 4.29850538 8 4 C8 5.65 8 7.3 8 9 C6.84775972 8.07038578 5.70340824 7.1309875 4.5625 6.1875 C3.60537109 5.40439453 3.60537109 5.40439453 2.62890625 4.60546875 C1 3 1 3 0 0 Z " fill="#093B6A" transform="translate(812,440)"/>
<path d="M0 0 C2.52259061 1.97420135 2.9929808 2.96745642 3.6875 6.1875 C3.790625 7.115625 3.89375 8.04375 4 9 C1.525 8.01 1.525 8.01 -1 7 C-0.34 6.67 0.32 6.34 1 6 C0.67 4.02 0.34 2.04 0 0 Z " fill="#0C4273" transform="translate(876,400)"/>
<path d="M0 0 C3.81287042 1.44626119 5.32707177 3.30194812 7 7 C6.57421875 9.1640625 6.57421875 9.1640625 6 11 C5.18697675 9.54195831 4.37459869 8.08355685 3.5625 6.625 C3.11003906 5.81289063 2.65757812 5.00078125 2.19140625 4.1640625 C1.4349464 2.79003378 0.70145369 1.40290739 0 0 Z " fill="#D9ECF4" transform="translate(583,358)"/>
<path d="M0 0 C0.66 0.33 1.32 0.66 2 1 C-0.65654657 4.73884332 -2.58110387 6.64978174 -7 8 C-6.02133662 6.85373678 -5.04205413 5.70800212 -4.0625 4.5625 C-3.51722656 3.92441406 -2.97195313 3.28632812 -2.41015625 2.62890625 C-1.63204305 1.73008851 -0.84063472 0.84063472 0 0 Z " fill="#CFE2EE" transform="translate(779,830)"/>
<path d="M0 0 C0.66 0 1.32 0 2 0 C2 0.66 2 1.32 2 2 C2.99 2.33 3.98 2.66 5 3 C6.38576923 4.62332967 7.72641268 6.28724465 9 8 C6.64277278 7.82539058 5.30294138 7.3003668 3.62109375 5.6328125 C0 1.32051282 0 1.32051282 0 0 Z " fill="#134370" transform="translate(795,421)"/>
<path d="M0 0 C0.66 0 1.32 0 2 0 C1.67 1.65 1.34 3.3 1 5 C0.34 5 -0.32 5 -1 5 C-1.66 6.32 -2.32 7.64 -3 9 C-2.5020163 5.26512223 -2.12508244 3.18762365 0 0 Z " fill="#0E4376" transform="translate(166,346)"/>
<path d="M0 0 C0.268125 0.61875 0.53625 1.2375 0.8125 1.875 C1.95556848 4.2995233 1.95556848 4.2995233 5 6 C5 6.66 5 7.32 5 8 C3.02 7.34 1.04 6.68 -1 6 C-0.67 4.02 -0.34 2.04 0 0 Z " fill="#D6E9F2" transform="translate(455,198)"/>
<path d="M0 0 C2 3 2 3 1.75 6.125 C1.5025 7.07375 1.255 8.0225 1 9 C0.01 9.495 0.01 9.495 -1 10 C-0.67 6.7 -0.34 3.4 0 0 Z " fill="#D8E9F2" transform="translate(472,144)"/>
<path d="M0 0 C0.66 0.99 1.32 1.98 2 3 C0.02 3.99 -1.96 4.98 -4 6 C-4 4.68 -4 3.36 -4 2 C-2.68 1.34 -1.36 0.68 0 0 Z " fill="#144B80" transform="translate(550,135)"/>
<path d="M0 0 C1.32 0.66 2.64 1.32 4 2 C0.7 3.32 -2.6 4.64 -6 6 C-5 3 -5 3 -2.6875 1.1875 C-1.800625 0.795625 -0.91375 0.40375 0 0 Z " fill="#114274" transform="translate(602,92)"/>
<path d="M0 0 C-2.31 1.65 -4.62 3.3 -7 5 C-7.66 4.67 -8.32 4.34 -9 4 C-6.77642026 0.66463039 -4.04815944 -2.02407972 0 0 Z " fill="#104170" transform="translate(723,879)"/>
<path d="M0 0 C0.66 0.33 1.32 0.66 2 1 C-0.40436026 4.60654039 -1.94679607 4.85452932 -6 6 C-6.66 5.34 -7.32 4.68 -8 4 C-6.71349294 3.30289269 -5.42059335 2.61757124 -4.125 1.9375 C-3.40570312 1.55464844 -2.68640625 1.17179687 -1.9453125 0.77734375 C-1.30335938 0.52082031 -0.66140625 0.26429688 0 0 Z " fill="#E2F1F7" transform="translate(539,449)"/>
<path d="M0 0 C0.99 0.33 1.98 0.66 3 1 C1.515 3.475 1.515 3.475 0 6 C-0.99 5.01 -1.98 4.02 -3 3 C-2.01 2.01 -1.02 1.02 0 0 Z " fill="#174D82" transform="translate(679,415)"/>
<path d="M0 0 C2.475 0.495 2.475 0.495 5 1 C5 1.66 5 2.32 5 3 C5.99 3.33 6.98 3.66 8 4 C7.34 4.66 6.68 5.32 6 6 C3.97945196 4.35830472 1.97956942 2.69088222 0 1 C0 0.67 0 0.34 0 0 Z " fill="#DDEDF5" transform="translate(687,336)"/>
<path d="M0 0 C2.5 2.3125 2.5 2.3125 5 5 C5 5.99 5 6.98 5 8 C4.01 8.495 4.01 8.495 3 9 C2.01 6.03 1.02 3.06 0 0 Z " fill="#CCE6F3" transform="translate(626,253)"/>
<path d="M0 0 C0.6875 1.8125 0.6875 1.8125 1 4 C-0.25 5.5625 -0.25 5.5625 -2 7 C-2.556875 7.556875 -3.11375 8.11375 -3.6875 8.6875 C-4.120625 9.120625 -4.55375 9.55375 -5 10 C-3.84414715 6.08788267 -2.64465038 3.1254959 0 0 Z " fill="#123E6C" transform="translate(578,113)"/>
<path d="M0 0 C-2.97 1.32 -5.94 2.64 -9 4 C-9 3.01 -9 2.02 -9 1 C-5.19495213 -0.79682816 -4.29399165 -1.07349791 0 0 Z " fill="#D6E8F1" transform="translate(457,72)"/>
<path d="M0 0 C3.66881155 0.70554068 6.70450534 2.27735506 10 4 C8.375 4.75 8.375 4.75 6 5 C2.75 3.125 2.75 3.125 0 1 C0 0.67 0 0.34 0 0 Z " fill="#04527A" transform="translate(636,872)"/>
<path d="M0 0 C4.455 0.99 4.455 0.99 9 2 C9 2.33 9 2.66 9 3 C6.03 3 3.06 3 0 3 C0 2.01 0 1.02 0 0 Z " fill="#0F4275" transform="translate(815,496)"/>
<path d="M0 0 C0.66 0 1.32 0 2 0 C3.38938077 1.96147874 4.7260411 3.96166576 6 6 C3 6 3 6 1.3125 4.6875 C0 3 0 3 0 0 Z " fill="#1D4F7C" transform="translate(822,450)"/>
<path d="M0 0 C0.66 0 1.32 0 2 0 C1.34 2.97 0.68 5.94 0 9 C-0.66 8.01 -1.32 7.02 -2 6 C-1.125 2.8125 -1.125 2.8125 0 0 Z " fill="#E6F4FB" transform="translate(142,409)"/>
<path d="M0 0 C0.99 0.99 1.98 1.98 3 3 C1.84826645 5.46800047 0.95216435 7.04783565 -1 9 C-0.67 6.03 -0.34 3.06 0 0 Z " fill="#124777" transform="translate(507,312)"/>
<path d="M0 0 C0.99 0.66 1.98 1.32 3 2 C-0.465 4.97 -0.465 4.97 -4 8 C-2.66666667 5.33333333 -1.33333333 2.66666667 0 0 Z " fill="#104E85" transform="translate(250,219)"/>
<path d="M0 0 C0 3.52809907 -0.64276511 4.46815512 -3 7 C-3.99 7 -4.98 7 -6 7 C-4.77065985 3.31197956 -3.06140622 2.27643027 0 0 Z " fill="#10426D" transform="translate(628,142)"/>
</svg>
